<?xml version="1.0" encoding="utf-8"?>
<!-- Generator: Adobe Illustrator 26.0.1, SVG Export Plug-In . SVG Version: 6.00 Build 0)  -->
<svg version="1.1" id="Layer_1" xmlns="http://www.w3.org/2000/svg" xmlns:xlink="http://www.w3.org/1999/xlink" x="0px" y="0px"
	 viewBox="0 0 1600.1 451.3" style="enable-background:new 0 0 1600.1 451.3;" xml:space="preserve">
<style type="text/css">
	.st0{fill:none;stroke:#4867C1;stroke-width:40;stroke-linecap:round;stroke-opacity:0.27;}
	.st1{fill:#4867C1;}
	.st2{fill:none;stroke:#FFFFFF;stroke-width:5;stroke-linecap:round;stroke-linejoin:round;}
	.st3{fill:#FFFFFF;}
	.st4{font-family:'MyriadPro-Regular';}
	.st5{font-size:12px;}
</style>
<path class="st0" d="M618.4,384.7c83.4,0.6,167.2-51.1,183.9-155.2C818.8,126,901.8,74.6,984.7,75"/>
<path class="st1" d="M1019.6,10.7c5.3-4,12.9-0.2,12.8,6.4l-0.2,32.5c0,2.6,1.3,5.1,3.4,6.6l26.7,18.6c5.4,3.8,4.2,12.2-2.1,14.2
	l-31,9.9c-2.5,0.8-4.5,2.8-5.2,5.3l-9.4,31.1c-1.9,6.3-10.3,7.7-14.2,2.4l-19-26.4c-1.5-2.1-4-3.4-6.7-3.3l-32.5,0.7
	c-6.6,0.1-10.5-7.4-6.6-12.7L955,69.7c1.6-2.1,2-4.9,1.1-7.4l-10.7-30.7c-2.2-6.3,3.8-12.3,10.1-10.2l30.9,10.2
	c2.5,0.8,5.2,0.4,7.3-1.2L1019.6,10.7z"/>
<path class="st2" d="M991.1,55h-6c-1.1,0-2.1,0.4-2.8,1.2c-0.8,0.8-1.2,1.8-1.2,2.8v6 M1017.1,65v-6c0-1.1-0.4-2.1-1.2-2.8
	c-0.8-0.8-1.8-1.2-2.8-1.2h-6 M1007.1,91h6c1.1,0,2.1-0.4,2.8-1.2c0.8-0.8,1.2-1.8,1.2-2.8v-6 M981.1,81v6c0,1.1,0.4,2.1,1.2,2.8
	c0.8,0.8,1.8,1.2,2.8,1.2h6"/>
<path class="st2" d="M1020.1,61.5l-27.5,27l-12.5-12.3"/>
<path class="st0" d="M1007.1,73.4c82.9,0.4,165.9,52.5,182.5,155.9c17.2,107.2,105.4,159.4,191.2,156.2"/>
<path class="st0" d="M124.4,165.7c41.8-2.2,122.4,0,160.1,0c64.4,0,100.4,0,121,58.2c16.4,103,98.4,154.9,180.9,155.5"/>
<g>
	<path class="st3" d="M96.9,52.6c4.2-3.9,10.7-3.9,15,0l21.4,19.8c1.9,1.8,4.4,2.8,7.1,2.9l29.2,1.1c5.8,0.2,10.4,4.8,10.6,10.6
		l1.1,29.2c0.1,2.6,1.1,5.1,2.9,7.1l19.8,21.4c3.9,4.2,3.9,10.7,0,15L184.1,181c-1.8,1.9-2.8,4.4-2.9,7.1l-1.1,29.2
		c-0.2,5.8-4.8,10.4-10.6,10.6l-29.2,1.1c-2.6,0.1-5.1,1.1-7.1,2.9l-21.4,19.8c-4.2,3.9-10.7,3.9-15,0l-21.4-19.8
		c-1.9-1.8-4.4-2.8-7.1-2.9l-29.2-1.1c-5.8-0.2-10.4-4.8-10.6-10.6l-1.1-29.2c-0.1-2.6-1.1-5.1-2.9-7.1L4.8,159.6
		c-3.9-4.2-3.9-10.7,0-15l19.8-21.4c1.8-1.9,2.8-4.4,2.9-7.1L28.7,87c0.2-5.7,4.8-10.4,10.6-10.6l29.2-1.1c2.6-0.1,5.1-1.1,7.1-2.9
		L96.9,52.6z"/>
</g>
<path class="st1" d="M621.6,321.1c5.3-4,12.9-0.2,12.8,6.4l-0.2,32.5c0,2.6,1.3,5.1,3.4,6.6l26.7,18.6c5.4,3.8,4.2,12.2-2.1,14.2
	l-31,9.9c-2.5,0.8-4.5,2.8-5.2,5.3l-9.4,31.1c-1.9,6.3-10.3,7.7-14.2,2.4l-19-26.4c-1.5-2.1-4-3.4-6.7-3.3l-32.5,0.7
	c-6.6,0.1-10.5-7.4-6.6-12.7l19.2-26.2c1.6-2.1,2-4.9,1.1-7.4L547.5,342c-2.2-6.3,3.8-12.3,10.1-10.2l30.9,10.2
	c2.5,0.8,5.2,0.4,7.3-1.2L621.6,321.1z"/>
<text transform="matrix(1 0 0 1 88.1514 164.7963)" class="st4 st5">START !</text>
<path class="st2" d="M593.1,365.4h-6c-1.1,0-2.1,0.4-2.8,1.2c-0.8,0.8-1.2,1.8-1.2,2.8v6 M619.1,375.4v-6c0-1.1-0.4-2.1-1.2-2.8
	c-0.8-0.8-1.8-1.2-2.8-1.2h-6 M609.1,401.4h6c1.1,0,2.1-0.4,2.8-1.2c0.8-0.8,1.2-1.8,1.2-2.8v-6 M583.1,391.4v6
	c0,1.1,0.4,2.1,1.2,2.8c0.8,0.8,1.8,1.2,2.8,1.2h6"/>
<path class="st2" d="M622.1,371.9l-27.5,27l-12.5-12.3"/>
<path class="st1" d="M1408.6,320.4c5.3-4,12.9-0.2,12.8,6.4l-0.2,32.5c0,2.6,1.3,5.1,3.4,6.6l26.7,18.6c5.4,3.8,4.2,12.2-2.1,14.2
	l-31,9.9c-2.5,0.8-4.5,2.8-5.2,5.3l-9.4,31.1c-1.9,6.3-10.3,7.7-14.2,2.4l-19-26.4c-1.5-2.1-4-3.4-6.7-3.3l-32.5,0.7
	c-6.6,0.1-10.5-7.4-6.6-12.7l19.2-26.2c1.6-2.1,2-4.9,1.1-7.4l-10.7-30.7c-2.2-6.3,3.8-12.3,10.1-10.2l30.9,10.2
	c2.5,0.8,5.2,0.4,7.3-1.2L1408.6,320.4z"/>
<path class="st2" d="M1380.1,364.7h-6c-1.1,0-2.1,0.4-2.8,1.2c-0.8,0.8-1.2,1.8-1.2,2.8v6 M1406.1,374.7v-6c0-1.1-0.4-2.1-1.2-2.8
	c-0.8-0.8-1.8-1.2-2.8-1.2h-6 M1396.1,400.7h6c1.1,0,2.1-0.4,2.8-1.2c0.8-0.8,1.2-1.8,1.2-2.8v-6 M1370.1,390.7v6
	c0,1.1,0.4,2.1,1.2,2.8c0.8,0.8,1.8,1.2,2.8,1.2h6"/>
<path class="st2" d="M1409.1,371.2l-27.5,27l-12.5-12.3"/>
<rect class="st3" width="609.1" height="450.7"/>
<rect x="609.1" class="st3" width="398" height="450.7"/>
<rect x="609.1" class="st3" width="398" height="450.7"/>
<rect x="1007.1" y="0.3" class="st3" width="447.8" height="450.7"/>
</svg>
